<svg xmlns="http://www.w3.org/2000/svg" width="900" height="560" viewBox="0 0 900 560" fill="none">
  <defs>
    <linearGradient id="s" x1="0" y1="0" x2="1" y2="1">
      <stop offset="0%" stop-color="#2a2a2a"/>
      <stop offset="100%" stop-color="#121212"/>
    </linearGradient>
    <linearGradient id="r" x1="0" y1="0" x2="1" y2="0">
      <stop offset="0%" stop-color="#FF1744"/>
      <stop offset="100%" stop-color="#D90429"/>
    </linearGradient>
  </defs>
  <rect x="40" y="40" width="820" height="480" rx="16" fill="url(#s)" stroke="#2f2f2f"/>
  <rect x="70" y="84" width="760" height="24" rx="6" fill="#1b1b1b"/>
  <circle cx="90" cy="96" r="6" fill="#ff5f57"/>
  <circle cx="110" cy="96" r="6" fill="#fdbb2d"/>
  <circle cx="130" cy="96" r="6" fill="#28c840"/>
  <rect x="70" y="140" width="340" height="36" rx="8" fill="url(#r)" opacity="0.9"/>
  <rect x="70" y="196" width="520" height="14" rx="6" fill="#2b2b2b"/>
  <rect x="70" y="220" width="480" height="14" rx="6" fill="#2b2b2b"/>
  <rect x="70" y="244" width="420" height="14" rx="6" fill="#2b2b2b"/>
  <rect x="620" y="180" width="210" height="160" rx="12" fill="#141414" stroke="#2b2b2b"/>
  <rect x="640" y="200" width="170" height="14" rx="6" fill="#2b2b2b"/>
  <rect x="640" y="222" width="140" height="14" rx="6" fill="#2b2b2b"/>
  <rect x="640" y="248" width="170" height="36" rx="8" fill="url(#r)" opacity="0.9"/>
  <rect x="70" y="320" width="760" height="140" rx="12" fill="#111" stroke="#2b2b2b"/>
  <rect x="90" y="340" width="180" height="100" rx="10" fill="#181818"/>
  <rect x="290" y="340" width="180" height="100" rx="10" fill="#181818"/>
  <rect x="490" y="340" width="180" height="100" rx="10" fill="#181818"/>
</svg>
